<?xml version="1.0" standalone="no"?>
<!DOCTYPE svg PUBLIC "-//W3C//DTD SVG 20010904//EN"
 "http://www.w3.org/TR/2001/REC-SVG-20010904/DTD/svg10.dtd">
<svg version="1.0" xmlns="http://www.w3.org/2000/svg"
 width="512.000000pt" height="512.000000pt" viewBox="0 0 512.000000 512.000000"
 preserveAspectRatio="xMidYMid meet">

<g transform="translate(0.000000,512.000000) scale(0.100000,-0.100000)"
fill="#D60000" stroke="none">
<path d="M2465 4888 c-3 -7 -4 -204 -3 -437 l3 -424 80 0 80 0 0 434 0 434
-78 3 c-56 2 -79 -1 -82 -10z"/>
<path d="M1118 4532 c-37 -20 -68 -42 -68 -49 0 -10 70 -138 203 -373 11 -19
63 -111 115 -205 52 -93 97 -172 99 -175 4 -5 122 57 140 74 9 8 1 30 -34 91
-25 44 -117 208 -205 365 -88 157 -165 290 -171 297 -9 9 -28 3 -79 -25z"/>
<path d="M3838 4408 c-47 -84 -143 -256 -213 -381 -70 -126 -123 -232 -119
-237 5 -4 39 -24 75 -44 l65 -36 104 188 c57 103 136 243 175 312 100 175 145
258 145 268 0 7 -130 82 -143 82 -2 0 -43 -69 -89 -152z"/>
<path d="M2415 3774 c-87 -5 -240 -33 -355 -65 -615 -168 -1104 -674 -1249
-1290 -42 -183 -46 -214 -46 -414 0 -208 7 -267 52 -445 153 -610 645 -1107
1258 -1270 173 -47 232 -54 460 -54 230 -1 284 5 465 51 779 198 1330 908
1330 1712 0 153 -25 349 -61 466 -62 209 -159 414 -267 565 -37 52 -123 151
-192 220 -166 166 -317 272 -518 363 -164 75 -260 103 -492 146 -62 11 -293
20 -385 15z"/>
<path d="M107 3513 c-45 -72 -61 -102 -56 -106 2 -2 105 -64 229 -137 124 -73
288 -170 366 -216 77 -46 143 -84 146 -84 7 0 88 126 88 137 0 8 -86 60 -495
301 -88 52 -177 105 -197 118 -21 13 -42 24 -48 24 -5 0 -20 -17 -33 -37z"/>
<path d="M4735 3399 c-563 -347 -507 -309 -492 -333 7 -11 26 -42 43 -68 16
-27 33 -48 37 -48 5 0 95 53 200 117 106 64 268 163 361 220 94 57 173 106
178 111 7 7 -58 123 -79 142 -4 4 -116 -60 -248 -141z"/>
</g>
</svg>
